<svg width="6" height="14" viewBox="0 0 6 14" fill="none" xmlns="http://www.w3.org/2000/svg">
<g opacity="0.5" clip-path="url(#clip0_1_1756)">
<path d="M4.44121 9.95699C4.78376 10.6568 5.163 11.3381 5.57726 11.998C5.62523 12.0644 5.65954 12.1396 5.67827 12.2193C5.69701 12.2991 5.69978 12.3817 5.68639 12.4625C5.673 12.5433 5.64372 12.6207 5.60027 12.6901C5.55682 12.7595 5.50004 12.8196 5.43322 12.867L5.13323 13.167C5.03739 13.285 4.91346 13.377 4.77281 13.4347C4.63217 13.4923 4.47931 13.5138 4.32823 13.497C3.81834 13.5012 3.31229 13.4082 2.83721 13.223C1.63721 12.544 1.18024 10.873 0.937243 9.559C0.621126 7.8793 0.62926 6.15463 0.96123 4.47799C1.21623 3.16199 1.69123 1.48699 2.89623 0.792992C3.37108 0.603008 3.87776 0.50527 4.38921 0.504997C4.53893 0.486282 4.69095 0.506016 4.83092 0.562355C4.97089 0.618694 5.09425 0.709771 5.18926 0.826988L5.48925 1.12699C5.61802 1.22961 5.7018 1.37831 5.72289 1.54162C5.74398 1.70492 5.7007 1.87002 5.60222 2.00199C5.14822 2.80199 4.81426 3.37199 4.47026 4.04699C4.32726 4.32699 4.20426 4.30499 3.91326 4.26099L3.44524 4.18899C3.37542 4.16312 3.30098 4.15219 3.22667 4.15691C3.15237 4.16163 3.07988 4.18189 3.0139 4.21639C2.94792 4.25089 2.88989 4.29886 2.84362 4.35719C2.79734 4.41551 2.76382 4.48289 2.74523 4.55499C2.22644 6.14898 2.21839 7.86521 2.72222 9.464C2.74015 9.53633 2.77344 9.60396 2.81975 9.66235C2.86606 9.72073 2.92436 9.7685 2.99071 9.80244C3.05706 9.83637 3.12989 9.85567 3.20433 9.85905C3.27878 9.86242 3.35308 9.84979 3.42223 9.822L3.89025 9.74699C4.18125 9.69899 4.29024 9.68099 4.44524 9.95399L4.44121 9.95699Z" fill="black"/>
</g>
<defs>
<clipPath id="clip0_1_1756">
<rect width="5" height="13" fill="white" transform="translate(0.703125 0.5)"/>
</clipPath>
</defs>
</svg>
