<svg width="18" height="18" fill="none" xmlns="http://www.w3.org/2000/svg"><g opacity=".5" clip-path="url(#clip0_1_1888)"><path fill-rule="evenodd" clip-rule="evenodd" d="M17.69 1.707l-4.3 4.291H16a1 1 0 110 2h-5a1 1 0 01-1-1v-5a1 1 0 012 0v2.543l4.26-4.26a1.01 1.01 0 011.43 1.426zM9.58 17.971a8.9 8.9 0 01-4.36-2.409c-.35-.367-.8-.727-1.21-1.156l-.64-.686c-.4-.435-.74-.92-1.09-1.287A9.933 9.933 0 01.03 7.784 5.628 5.628 0 011.7 3.157c1.95-1.926 3.6-1.073 4.56-.065a5.46 5.46 0 011.71 3.785c-.03 1.845-1.18 2.391-.96 2.584.08.071.23.244.4.427l.64.685c.141.136.275.28.4.43.19.236.7-1 2.43-1.025a3.56 3.56 0 013.09 1.342 3.332 3.332 0 01-.06 4.865 4.922 4.922 0 01-4.33 1.786zm3.33-4.872a2.043 2.043 0 00-1.69-1.105 2.271 2.271 0 00-2.39.891c-.66.713-1.25-.121-2.12-1.034l-.65-.686c-.85-.935-1.63-1.561-.97-2.264a2.436 2.436 0 00.94-2.393 4.038 4.038 0 00-1.44-2.463 1.665 1.665 0 00-1.79.47A3.94 3.94 0 002 7.409a7.78 7.78 0 001.52 3.62c.23.263.63.8 1.13 1.32l.65.686c.49.533.99.966 1.23 1.206a7.024 7.024 0 003.4 1.741 3.057 3.057 0 002.54-.972 1.955 1.955 0 00.44-1.911z" fill="#333"/></g><defs><clipPath id="clip0_1_1888"><path fill="#fff" d="M0 0h18v18H0z"/></clipPath></defs></svg>