<?xml version="1.0" encoding="utf-8"?><svg xmlns="http://www.w3.org/2000/svg" xmlns:xlink="http://www.w3.org/1999/xlink"><symbol viewBox="0 0 6 14" id="phone" xmlns="http://www.w3.org/2000/svg"><g opacity=".5" clip-path="url(#aclip0_1_1756)"><path d="M4.441 9.957c.343.7.722 1.381 1.136 2.041a.62.62 0 01-.144.869l-.3.3a.908.908 0 01-.805.33 4.014 4.014 0 01-1.49-.274c-1.2-.679-1.658-2.35-1.9-3.664A13.4 13.4 0 01.96 4.478c.255-1.316.73-2.991 1.935-3.685.475-.19.982-.288 1.493-.288a.888.888 0 01.8.322l.3.3a.634.634 0 01.113.875c-.454.8-.788 1.37-1.132 2.045-.143.28-.266.258-.557.214l-.468-.072a.532.532 0 00-.7.366 8.047 8.047 0 00-.023 4.909.521.521 0 00.7.358l.468-.075c.291-.048.4-.066.555.207l-.004.003z"/></g><defs><clipPath id="aclip0_1_1756"><path transform="translate(.703 .5)" d="M0 0h5v13H0z"/></clipPath></defs></symbol><symbol viewBox="0 0 24 24" id="slider-arrow" xmlns="http://www.w3.org/2000/svg"><path d="M7.33 24L4.5 21.171l9.339-9.175L4.5 2.829 7.33 0 19.5 11.996z"/></symbol></svg>