<svg width="13" height="10" viewBox="0 0 13 10" fill="none" xmlns="http://www.w3.org/2000/svg">
<path fill-rule="evenodd" clip-rule="evenodd" d="M11.717 5.67328L7.69501 9.69028C7.50635 9.86129 7.2592 9.95328 7.00464 9.94727C6.75008 9.94125 6.50758 9.83769 6.32721 9.65796C6.14684 9.47823 6.04238 9.23608 6.03546 8.98154C6.02854 8.727 6.11964 8.47952 6.28998 8.29026L8.60797 5.97327H1C0.734784 5.97327 0.480444 5.8679 0.292908 5.68036C0.105371 5.49283 0 5.23849 0 4.97327C0 4.70805 0.105371 4.45371 0.292908 4.26618C0.480444 4.07864 0.734784 3.97327 1 3.97327H8.60999L6.28998 1.65726C6.11964 1.46799 6.02854 1.22054 6.03546 0.966006C6.04238 0.71147 6.14684 0.469314 6.32721 0.289584C6.50758 0.109854 6.75008 0.00629084 7.00464 0.000277296C7.2592 -0.00573625 7.50635 0.0862539 7.69501 0.257266L11.717 4.27326C11.9021 4.45917 12.0061 4.71088 12.0061 4.97327C12.0061 5.23565 11.9021 5.48736 11.717 5.67328Z" fill="#8FB1B0"/>
</svg>
