<svg width="19" height="14" viewBox="0 0 19 14" fill="none" xmlns="http://www.w3.org/2000/svg">
<g opacity="0.5" clip-path="url(#clip0_1_1892)">
<path fill-rule="evenodd" clip-rule="evenodd" d="M17 14H2C1.46957 14 0.960888 13.7893 0.585815 13.4142C0.210743 13.0391 0 12.5304 0 12V2C0 1.46957 0.210743 0.960888 0.585815 0.585815C0.960888 0.210743 1.46957 0 2 0H17C17.5304 0 18.0391 0.210743 18.4142 0.585815C18.7893 0.960888 19 1.46957 19 2V12C19 12.5304 18.7893 13.0391 18.4142 13.4142C18.0391 13.7893 17.5304 14 17 14ZM3.12 12H15.87L12.75 9.07098L14.37 7.93701L17 10.3V4.09998L10 9H9L2 4.09998V10.3L4.62 7.93701L6.23999 9.065L3.12 12ZM16.58 2H2.42004L9.48999 7L16.58 2Z" fill="#333333"/>
</g>
<defs>
<clipPath id="clip0_1_1892">
<rect width="19" height="14" fill="white"/>
</clipPath>
</defs>
</svg>
