<svg width="18" height="18" viewBox="0 0 18 18" fill="none" xmlns="http://www.w3.org/2000/svg">
<g opacity="0.5" clip-path="url(#clip0_1_1888)">
<path fill-rule="evenodd" clip-rule="evenodd" d="M17.69 1.70696L13.3901 5.99797H16C16.2653 5.99797 16.5197 6.10334 16.7072 6.29088C16.8947 6.47842 17 6.73276 17 6.99797C17 7.26319 16.8947 7.51753 16.7072 7.70507C16.5197 7.8926 16.2653 7.99797 16 7.99797H11C10.7348 7.99797 10.4804 7.8926 10.2929 7.70507C10.1054 7.51753 10 7.26319 10 6.99797V1.99797C10 1.73276 10.1054 1.47842 10.2929 1.29088C10.4804 1.10334 10.7348 0.997973 11 0.997973C11.2653 0.997973 11.5197 1.10334 11.7072 1.29088C11.8947 1.47842 12 1.73276 12 1.99797V4.541L16.26 0.280993C16.4506 0.0982721 16.7051 -0.00258316 16.969 -1.30953e-05C17.233 0.00255697 17.4854 0.10833 17.6723 0.294726C17.8592 0.481121 17.9657 0.733288 17.969 0.99724C17.9723 1.26119 17.8722 1.51593 17.69 1.70696ZM9.58 17.971C7.92699 17.5994 6.41442 16.7636 5.22001 15.562C4.87001 15.195 4.42005 14.835 4.01005 14.406L3.37004 13.72C2.97004 13.285 2.63007 12.8 2.28007 12.433C1.13325 11.1088 0.357011 9.50494 0.03007 7.78398C-0.0600134 6.93663 0.0435161 6.07989 0.332804 5.27837C0.622093 4.47685 1.08951 3.75147 1.69999 3.15697C3.64999 1.23097 5.30005 2.08397 6.26005 3.09197C7.3064 4.07911 7.92087 5.43934 7.97001 6.877C7.94001 8.722 6.79005 9.26799 7.01005 9.46099C7.09005 9.53199 7.24007 9.70499 7.41007 9.88799L8.05009 10.573C8.19111 10.709 8.32454 10.8525 8.44999 11.003C8.63999 11.239 9.15005 10.003 10.88 9.97801C11.4659 9.9292 12.0546 10.0262 12.5938 10.2604C13.133 10.4945 13.6058 10.8586 13.97 11.32C14.2991 11.6358 14.5599 12.0157 14.7362 12.4364C14.9126 12.857 15.0007 13.3094 14.995 13.7655C14.9894 14.2216 14.8903 14.6716 14.7037 15.0878C14.517 15.504 14.2469 15.8774 13.9101 16.185C13.3936 16.819 12.7271 17.3144 11.9711 17.6262C11.2151 17.938 10.3933 18.0565 9.58 17.971ZM12.9101 13.099C12.7482 12.7842 12.5074 12.5168 12.2111 12.3231C11.9148 12.1294 11.5733 12.016 11.22 11.994C10.7782 11.8862 10.3142 11.9134 9.8881 12.0723C9.46199 12.2311 9.09337 12.5143 8.83 12.885C8.17 13.598 7.58 12.764 6.71 11.851L6.0601 11.165C5.2101 10.23 4.43001 9.60399 5.09001 8.90099C5.45425 8.62945 5.7353 8.26148 5.90141 7.83861C6.06751 7.41574 6.11212 6.95483 6.03007 6.50798C5.86576 5.53911 5.35372 4.6634 4.59001 4.04497C4.27862 3.93744 3.94233 3.92475 3.6237 4.00841C3.30506 4.09207 3.01849 4.26837 2.80009 4.515C2.1619 5.33626 1.87428 6.37654 2.00004 7.40898C2.18885 8.72577 2.71221 9.97212 3.52006 11.029C3.75006 11.292 4.15006 11.829 4.65006 12.349L5.30009 13.035C5.79009 13.568 6.29007 14.001 6.53007 14.241C7.48078 15.1243 8.65767 15.7269 9.93009 15.982C10.3998 16.027 10.8735 15.9627 11.3141 15.7941C11.7548 15.6255 12.1504 15.3571 12.47 15.01C12.705 14.7585 12.8694 14.4495 12.9467 14.1141C13.024 13.7787 13.0113 13.4279 12.9101 13.099Z" fill="#333333"/>
</g>
<defs>
<clipPath id="clip0_1_1888">
<rect width="18" height="18" fill="white"/>
</clipPath>
</defs>
</svg>
